<?xml version="1.0" encoding="UTF-8"?>
<svg xmlns="http://www.w3.org/2000/svg" viewBox="0 0 1254 817" role="img" aria-labelledby="title desc">
 <title id="title">Legions Club Tech</title>
 <desc id="desc">Pure vector recreation of the Legions Club Tech logo.</desc>
 <defs>
   <linearGradient id="lime" x1="0" y1="0" x2="1" y2="1">
     <stop offset="0" stop-color="#D1FF00"/>
     <stop offset=".55" stop-color="#B6FF00"/>
     <stop offset="1" stop-color="#8CFF00"/>
   </linearGradient>
   <linearGradient id="silver" x1="0" y1="0" x2="0" y2="1">
     <stop offset="0" stop-color="#FFFFFF"/>
     <stop offset=".65" stop-color="#F2F2F2"/>
     <stop offset="1" stop-color="#BFC4C9"/>
   </linearGradient>
 </defs>
 <!-- All geometry below is SVG path data: no embedded bitmap. -->
 <path d="M 34,475 33,501 52,502 51,547 33,616 33,648 35,656 52,674 52,708 38,709 38,739 55,744 60,750 61,755 87,776 99,781 106,781 110,784 122,785 123,789 128,790 129,793 146,793 157,796 219,795 221,798 221,816 994,816 994,754 1002,750 1074,750 1075,787 1079,789 1106,789 1113,785 1142,785 1170,775 1173,771 1178,771 1185,766 1190,752 1201,744 1201,721 1187,719 1187,685 1217,646 1224,627 1224,600 1218,578 1212,567 1212,493 1234,492 1234,469 1217,461 1209,453 1180,451 1172,446 1137,448 1136,484 965,485 945,488 906,488 898,485 862,484 861,449 916,408 929,394 933,377 977,377 977,346 975,345 975,338 971,330 966,328 965,325 942,325 941,339 889,337 701,337 700,302 710,295 718,293 792,293 834,290 865,273 880,259 899,247 933,247 935,266 961,266 962,258 967,256 968,236 975,232 978,215 976,166 969,154 958,153 958,140 956,137 936,123 926,122 884,124 883,158 711,159 677,161 666,164 632,164 631,128 640,105 647,78 648,64 687,63 687,36 685,34 685,27 677,17 677,0 549,0 548,57 538,62 504,62 503,49 499,49 496,45 474,45 468,56 459,65 452,67 448,77 440,82 437,96 437,118 453,119 453,154 436,190 416,243 402,271 401,279 397,285 344,285 343,290 338,295 339,329 365,330 365,364 348,400 333,439 331,481 265,482 251,486 239,495 229,510 225,534 219,549 185,549 182,513 182,479 188,477 188,455 185,453 169,453 167,450 160,448 73,451 72,453 60,455 53,461 47,461 Z M 701,704 737,705 736,744 700,743 Z M 961,648 1142,647 1143,682 1139,686 962,686 Z M 595,647 654,649 653,732 596,731 Z M 410,647 453,648 452,705 409,704 Z M 111,648 301,647 302,682 299,686 116,686 111,682 Z M 907,635 942,634 949,641 949,675 908,676 Z M 844,187 844,241 809,265 755,265 756,187 Z" fill="#050607"/>
 <path d="M 519,794 519,804 531,804 532,806 569,806 576,804 583,804 585,802 599,802 600,804 618,804 619,802 623,802 627,804 637,804 638,805 652,804 653,806 658,808 670,808 675,806 679,806 681,804 686,804 696,806 710,806 713,808 719,808 720,810 738,810 739,809 757,810 758,808 765,808 767,806 770,806 771,804 783,803 783,795 762,795 761,794 749,794 748,793 663,792 662,791 644,790 643,789 600,790 599,791 588,791 587,792 575,792 572,794 564,794 563,793 Z M 987,784 976,784 971,786 958,787 956,789 948,789 933,792 893,791 892,792 886,792 882,794 876,794 875,793 867,793 866,794 863,793 806,794 799,796 793,796 793,804 799,804 801,806 823,806 824,805 829,808 839,808 844,806 850,806 857,809 868,809 871,808 872,806 886,807 887,806 905,806 906,805 920,805 921,804 926,804 929,806 943,806 947,802 949,802 951,800 956,800 958,798 972,799 977,796 984,796 984,794 987,792 Z M 214,777 214,785 220,786 221,788 226,788 228,792 231,794 235,794 236,796 244,796 245,794 250,793 269,793 270,794 270,800 272,802 283,802 287,800 298,800 299,798 306,800 315,800 316,799 326,809 338,809 341,808 344,805 349,805 351,807 351,810 361,810 362,809 370,809 373,806 375,806 376,804 380,804 383,806 392,806 393,805 395,806 405,806 412,810 425,810 427,808 430,808 436,810 437,813 443,814 445,816 457,816 460,814 463,814 463,809 464,808 469,808 471,811 480,811 490,807 497,807 501,806 502,804 509,804 511,802 513,802 513,794 511,793 496,793 495,792 487,792 486,793 456,793 455,792 388,793 387,792 361,792 353,790 339,790 338,789 294,789 282,786 280,784 266,783 264,781 255,779 236,779 229,777 Z M 1194,728 1193,727 1184,727 1177,732 1173,733 1172,735 1170,735 1166,739 1165,742 1161,743 1157,749 1153,750 1152,752 1149,752 1147,757 1145,759 1140,760 1138,763 1137,762 1121,763 1117,764 1115,766 1107,767 1103,769 1097,769 1082,772 1082,780 1086,782 1099,782 1102,779 1106,778 1135,778 1143,776 1150,772 1153,772 1163,768 1166,764 1171,764 1179,758 1179,753 1181,752 1183,745 1187,742 1191,741 1191,739 1194,737 Z M 45,716 45,732 50,732 62,737 63,740 67,743 68,748 70,748 73,752 75,752 81,760 100,772 105,772 106,774 113,774 117,777 129,778 130,782 135,783 136,786 144,786 147,782 150,785 156,788 163,788 164,789 172,789 177,788 179,786 182,788 197,788 200,786 209,786 208,776 198,774 171,773 170,772 150,770 138,765 128,765 123,761 120,761 117,759 112,759 111,757 106,756 105,753 102,753 98,749 98,745 93,743 85,735 81,734 74,728 71,728 70,726 68,726 64,722 61,722 60,720 53,716 Z M 991,699 991,707 1000,707 1001,709 1041,709 1042,707 1043,709 1115,709 1119,703 1118,693 1049,693 1046,695 1027,695 1023,693 999,693 998,695 996,695 994,698 Z M 135,694 135,702 140,709 142,710 261,710 263,709 264,706 264,698 261,693 253,693 252,695 247,695 246,693 168,693 167,695 156,695 155,693 Z M 905,685 905,696 907,697 907,703 905,704 905,722 921,723 921,711 922,710 937,710 939,712 939,724 954,724 954,684 938,683 938,695 936,698 932,698 931,696 922,696 920,694 920,685 918,683 907,683 Z M 824,687 823,689 823,718 826,718 829,724 868,724 868,712 843,712 838,707 838,699 840,697 866,696 868,695 868,683 829,683 827,684 826,687 Z M 746,683 746,703 744,704 744,722 785,722 784,712 763,712 762,711 763,710 784,710 784,698 786,695 786,685 784,683 Z M 663,683 661,688 661,696 662,697 676,697 677,698 677,722 679,724 693,724 693,698 694,697 708,697 709,696 709,683 Z M 181,462 178,460 162,460 160,457 153,455 144,455 135,458 117,458 116,456 100,456 95,458 80,458 79,460 72,460 71,462 67,462 65,465 61,466 60,468 54,468 54,470 50,474 45,476 44,480 41,482 40,494 49,494 51,492 61,488 64,485 65,482 77,476 98,474 107,471 121,471 125,469 146,469 148,471 174,472 181,470 Z M 1144,455 1144,464 1148,464 1151,466 1161,468 1166,468 1170,471 1192,474 1215,484 1227,485 1227,476 1225,474 1222,474 1221,472 1218,472 1216,470 1210,468 1207,465 1207,463 1202,460 1186,460 1185,458 1173,458 1172,456 1165,453 1156,453 1151,455 Z M 636,371 636,379 638,381 640,381 643,384 643,386 651,394 653,394 658,399 658,402 667,411 669,411 671,413 671,416 682,427 685,427 696,439 711,439 712,441 768,441 769,440 774,441 788,441 789,440 802,441 890,381 890,373 887,371 874,371 873,370 865,370 864,371 857,371 856,370 798,370 797,371 796,370 643,370 642,371 Z M 949,332 949,340 953,348 953,351 956,355 956,359 960,364 962,370 970,370 970,353 968,352 968,345 966,344 966,341 964,339 964,337 959,335 958,332 Z M 365,294 362,294 359,292 351,292 350,297 345,302 345,320 346,322 354,322 355,319 359,317 359,315 363,310 363,307 365,304 Z M 735,197 730,197 729,195 721,195 720,193 707,193 706,194 681,193 676,196 670,203 662,205 657,212 645,217 641,222 630,225 623,232 616,235 614,238 608,242 606,242 605,244 598,249 595,249 588,256 580,259 568,267 567,272 563,276 563,279 561,281 560,288 553,299 542,326 538,333 532,350 530,352 530,355 526,362 525,366 526,376 527,377 614,377 617,372 620,371 620,366 625,356 628,355 628,350 638,331 638,328 640,326 647,311 649,309 651,309 652,301 654,296 658,291 664,277 666,275 668,275 668,270 671,269 672,263 679,257 686,255 710,255 711,254 716,254 717,252 720,251 740,250 740,242 737,239 738,238 744,238 748,235 748,222 743,222 742,217 740,217 737,214 738,213 738,203 736,202 Z M 908,185 877,186 876,189 861,189 856,192 851,193 851,201 859,201 860,202 860,215 870,216 873,215 876,211 880,210 889,204 894,204 908,194 Z M 962,161 954,161 953,162 953,178 955,187 955,195 953,196 953,208 950,222 948,225 944,244 941,250 941,258 942,259 954,259 955,251 960,249 960,242 961,241 960,229 966,227 968,225 969,221 969,213 968,212 970,211 971,208 971,187 970,186 969,173 Z M 891,131 891,139 893,140 902,141 909,144 915,144 917,146 925,146 929,150 940,153 941,156 950,156 951,155 951,147 949,144 945,141 941,140 938,136 935,135 929,130 903,129 897,131 Z M 615,59 607,59 596,65 589,70 575,77 572,80 568,81 567,84 561,85 561,87 555,91 549,92 548,95 542,96 539,100 535,100 526,105 525,108 519,109 516,111 515,114 510,116 505,120 502,131 498,138 497,146 487,171 487,174 484,179 481,194 477,201 465,234 463,236 462,244 460,246 459,250 457,251 454,259 450,264 450,273 448,276 448,279 446,281 446,283 444,284 443,289 441,290 441,292 439,294 434,309 431,310 428,315 428,322 422,328 422,330 420,332 418,340 415,344 413,355 410,357 404,374 401,378 400,386 398,388 398,391 394,395 388,412 382,422 380,431 375,440 372,453 372,461 377,463 387,463 388,465 487,465 488,463 503,463 504,465 667,465 667,457 613,404 487,404 479,402 490,377 495,362 499,355 501,346 506,338 510,325 516,313 517,307 519,304 519,300 521,298 524,292 525,286 529,280 535,264 535,261 538,258 538,255 540,253 542,245 549,232 549,229 555,217 556,212 559,207 559,204 565,192 566,186 570,179 575,164 579,157 583,146 586,145 587,135 589,132 591,132 591,126 594,125 595,120 616,68 616,60 Z M 496,56 492,56 489,52 481,52 479,53 475,63 466,72 462,72 459,74 459,76 455,80 455,84 451,85 447,89 446,98 444,103 444,111 452,111 459,104 459,102 467,95 471,87 474,84 476,84 476,82 480,78 481,75 484,74 486,71 496,64 Z M 40,623 40,641 42,649 46,655 65,674 76,682 104,710 111,724 120,734 122,734 135,741 149,742 150,743 195,743 196,742 201,742 202,743 265,743 277,748 279,751 282,752 288,757 301,761 589,761 604,757 613,752 624,749 640,749 657,758 661,758 666,760 678,760 679,761 712,761 713,762 723,762 724,761 897,761 898,760 945,761 946,760 966,759 972,757 976,754 978,754 989,745 995,743 1003,743 1004,742 1005,743 1015,743 1016,742 1041,742 1042,743 1051,743 1052,742 1113,742 1127,739 1135,734 1147,722 1147,720 1150,717 1151,713 1158,705 1160,700 1162,699 1167,692 1183,675 1186,670 1194,662 1204,646 1208,642 1210,637 1213,634 1215,628 1215,624 1217,620 1217,607 1211,585 1208,581 1205,573 1195,560 1196,549 1201,542 1205,531 1204,514 1199,505 1191,497 1183,494 1178,494 1172,492 1153,492 1152,491 1141,491 1140,492 1133,492 1132,491 1123,491 1122,492 1118,491 1034,491 1026,493 1021,492 972,492 962,494 953,494 949,496 946,496 927,511 909,498 891,492 880,493 875,491 831,491 830,490 816,490 815,491 814,490 701,490 700,489 691,489 689,487 703,473 710,470 776,470 777,469 805,470 813,468 815,466 822,465 830,457 838,454 848,445 868,433 878,423 909,401 922,387 923,382 925,379 925,361 918,350 906,346 898,346 897,345 883,345 882,344 790,344 789,345 788,344 687,344 671,341 670,336 675,327 677,326 678,320 683,313 684,308 689,300 696,292 705,287 710,287 711,286 818,285 835,280 844,275 854,267 858,266 861,262 873,252 878,250 879,248 890,242 897,235 908,228 918,218 924,214 936,198 937,181 935,178 934,173 926,167 914,166 913,165 850,165 849,166 848,165 840,165 839,166 807,165 806,166 728,166 727,167 726,166 718,166 717,167 703,167 702,168 684,168 670,171 667,174 665,174 663,176 651,181 627,199 617,203 612,208 606,210 592,219 591,217 597,202 597,198 601,188 603,177 605,174 606,169 612,159 613,151 615,149 622,125 625,120 630,103 633,98 636,81 640,71 640,66 641,65 641,52 636,41 631,38 624,36 613,36 612,37 602,38 595,43 593,43 590,46 574,54 572,54 562,60 560,60 559,62 557,62 555,64 533,74 525,80 523,80 521,82 505,89 502,92 493,97 485,106 484,110 481,113 476,126 473,130 467,147 461,157 456,172 449,184 447,192 443,197 441,206 437,213 437,216 433,223 433,226 423,246 423,250 421,252 416,266 409,278 408,286 404,292 398,307 396,309 396,313 393,319 391,328 389,330 388,335 380,349 380,352 377,356 375,363 373,365 371,374 363,389 363,392 361,394 359,401 355,407 355,410 344,434 344,437 341,443 339,451 339,469 342,477 348,486 346,488 337,488 336,489 272,489 258,493 246,502 240,510 238,516 236,517 236,521 232,534 232,541 228,550 227,558 220,564 211,568 184,566 179,561 176,549 176,521 175,517 169,505 159,496 151,492 141,490 131,490 130,489 107,489 106,490 97,490 93,492 90,492 78,501 75,502 67,514 67,518 63,530 63,535 59,543 58,554 56,558 50,586 47,593 47,598 42,610 42,617 Z M 50,635 50,631 58,604 60,592 62,588 62,584 76,532 77,524 80,521 82,515 92,505 101,501 106,501 107,500 139,501 147,504 156,512 156,514 162,522 163,527 165,528 165,552 164,553 164,565 162,566 162,575 166,578 179,578 180,577 182,578 230,578 235,575 237,572 241,550 243,546 244,537 249,520 258,508 271,501 406,501 407,500 418,500 419,501 706,501 707,502 743,502 744,503 888,504 900,509 913,521 925,529 936,529 938,527 939,520 953,508 964,504 999,504 1000,505 1032,505 1033,504 1171,504 1181,508 1185,512 1188,512 1194,521 1195,524 1192,531 1183,543 1183,545 1179,551 1179,562 1185,568 1188,574 1196,582 1207,611 1206,619 1203,622 1197,634 1182,654 1172,664 1170,668 1162,675 1146,693 1142,702 1131,719 1122,727 1110,731 984,731 981,732 965,746 954,750 678,751 666,748 657,742 650,739 607,739 602,741 592,748 582,751 306,751 295,746 280,733 275,731 145,731 133,727 124,719 113,701 110,694 61,651 Z M 926,186 923,191 899,214 829,265 816,272 811,272 810,273 689,273 686,274 680,282 669,305 649,341 650,356 658,356 660,354 701,354 702,355 763,355 764,356 797,355 798,356 825,356 826,357 899,357 905,359 911,364 914,369 914,372 911,375 911,378 906,383 895,389 892,393 890,393 889,396 886,396 867,413 812,453 806,456 799,458 696,458 691,460 689,462 687,468 675,479 666,481 489,481 488,480 426,481 425,480 367,480 357,475 350,467 349,461 359,436 361,434 363,427 366,423 371,408 375,402 376,397 380,390 387,370 390,366 395,352 400,343 407,324 410,319 417,299 421,292 443,238 459,203 463,191 485,143 486,134 497,112 505,105 519,99 521,97 550,83 569,72 573,71 587,63 589,63 600,56 607,54 616,48 619,47 624,49 630,57 604,136 602,139 599,150 582,194 582,197 577,208 576,214 573,219 566,238 566,247 568,247 570,249 578,249 582,247 600,234 602,234 608,230 609,228 611,228 612,226 614,226 668,190 678,184 686,181 741,181 750,179 753,180 799,180 800,178 807,178 808,179 916,178 920,180 Z M 556,16 556,26 566,26 568,24 573,23 576,21 593,19 603,16 622,15 624,17 630,17 633,18 636,21 638,21 639,23 642,23 646,25 648,28 653,29 654,31 658,33 661,43 663,44 671,56 680,56 680,43 678,41 678,34 675,32 675,29 672,25 665,21 660,16 653,14 652,12 643,6 631,3 629,1 598,0 597,2 594,2 590,5 582,6 581,8 562,8 558,12 558,15 Z" fill="#050607"/>
 <path d="M 544,686 544,725 551,725 552,724 576,725 577,724 583,724 587,721 588,718 587,691 584,687 581,686 Z M 557,712 559,710 572,710 574,712 573,713 558,713 Z M 557,698 558,697 572,697 573,699 572,700 558,700 Z M 461,687 461,719 465,724 468,725 499,725 502,724 506,719 506,686 494,686 493,687 493,711 491,713 476,713 474,711 474,686 462,686 Z M 389,686 388,687 388,725 425,725 425,713 402,713 401,712 401,686 Z M 310,689 308,693 308,720 310,723 314,725 349,725 350,724 350,714 349,713 324,714 321,712 321,700 324,697 350,698 351,697 351,687 350,686 315,686 Z M 257,639 379,639 403,612 403,606 382,606 381,605 370,605 369,606 270,605 269,606 260,606 259,620 257,628 Z M 262,595 372,595 373,596 379,596 401,572 401,565 266,565 264,572 Z M 1020,545 1022,577 1044,596 1140,596 1142,598 1143,603 1142,607 1047,607 1027,633 1027,639 1169,639 1185,619 1185,613 1182,605 1178,586 1155,567 1061,567 1059,565 1059,556 1060,555 1151,555 1171,530 1171,524 1041,524 Z M 844,524 844,530 858,543 859,596 860,597 860,638 861,639 899,639 898,595 897,594 897,579 898,578 964,639 1005,639 1005,619 1004,618 1002,562 1001,561 1000,525 999,524 962,524 961,525 963,577 964,578 964,585 963,586 893,524 Z M 673,545 673,618 695,638 817,638 837,619 835,545 813,524 695,524 Z M 711,556 712,555 796,555 798,557 798,604 797,605 712,605 711,604 Z M 611,524 610,525 609,639 640,639 641,640 647,640 648,524 Z M 425,546 423,580 422,581 422,591 421,592 421,604 420,605 420,621 436,639 563,639 584,619 585,567 505,567 485,589 485,595 546,596 547,597 547,604 545,606 460,606 459,605 462,557 464,555 550,555 572,530 572,524 449,524 Z M 267,554 268,555 389,555 411,530 411,524 270,524 Z M 72,639 84,639 85,638 95,638 96,639 116,639 117,638 125,638 126,639 139,639 140,638 143,639 157,639 158,638 163,639 178,639 179,638 181,639 211,639 212,638 217,638 244,611 244,605 123,605 122,603 124,598 126,584 128,579 137,534 137,524 98,524 91,552 91,556 84,581 84,585 80,598 80,602 77,610 75,623 72,632 Z" fill="#050607"/>
 <path d="M 523,798 523,800 535,800 536,802 540,800 543,800 544,802 565,802 572,800 579,800 581,798 585,797 603,798 604,800 608,799 614,800 615,798 627,798 631,800 635,799 642,801 649,798 650,800 656,800 657,802 662,804 675,802 677,800 690,800 691,801 692,800 697,800 700,802 714,802 717,804 723,804 724,806 734,806 735,805 753,806 754,804 761,804 763,802 766,802 767,800 779,799 758,799 757,798 753,799 744,797 727,797 726,798 723,797 695,797 692,798 684,796 683,797 679,796 659,796 649,794 642,795 639,793 637,794 634,793 633,794 628,793 625,794 604,794 600,796 594,796 593,795 591,796 579,796 576,798 560,798 559,797 Z M 983,788 975,790 962,791 959,794 952,793 937,796 904,796 903,795 899,796 897,795 896,796 890,796 886,798 872,798 871,797 870,798 856,797 855,798 841,798 840,799 837,798 817,798 816,799 810,798 803,800 797,800 803,800 805,802 828,801 833,804 843,802 845,800 849,800 850,802 854,802 861,805 867,804 868,802 871,801 877,801 880,803 894,802 895,801 901,802 907,800 912,800 913,801 930,800 933,802 939,802 940,800 942,800 943,798 945,798 947,796 952,796 954,794 967,794 968,795 973,792 980,792 980,790 Z M 218,781 224,782 225,784 230,784 232,788 235,790 239,790 240,792 241,790 245,790 246,788 250,789 273,789 274,790 274,796 276,798 279,798 283,796 289,796 290,794 292,794 294,796 295,794 304,794 310,796 315,794 320,795 330,805 337,804 340,800 345,800 346,801 347,800 352,800 355,803 355,806 357,806 359,804 366,805 369,802 371,802 372,800 384,800 387,802 392,800 398,800 399,802 409,802 416,806 421,806 423,804 432,802 433,804 440,806 441,809 447,810 449,812 459,810 458,807 462,803 473,804 476,807 486,803 493,803 497,802 498,800 505,800 507,798 509,798 507,797 498,798 491,796 490,797 471,797 470,798 452,797 451,796 448,797 443,796 409,796 403,798 398,797 396,798 391,798 390,797 386,798 383,796 372,797 371,796 357,796 349,794 335,794 334,793 290,793 278,790 276,788 262,787 257,784 232,783 225,781 Z M 1190,732 1188,731 1181,736 1177,737 1176,739 1174,739 1170,743 1169,746 1165,747 1161,753 1157,754 1156,756 1153,756 1151,761 1149,763 1144,764 1142,767 1134,767 1133,766 1121,768 1119,770 1111,771 1107,773 1101,773 1086,776 1090,778 1092,777 1095,778 1098,775 1116,774 1117,772 1120,773 1124,772 1125,774 1131,774 1139,772 1146,768 1149,768 1159,764 1162,760 1167,760 1175,754 1175,749 1177,748 1179,741 1183,738 1187,737 1187,735 Z M 49,720 49,728 50,726 52,726 55,729 66,733 67,736 71,739 72,744 74,744 77,748 79,748 85,756 104,768 109,768 110,770 117,770 121,773 135,774 136,777 134,778 139,779 140,782 146,776 152,778 154,781 160,784 167,784 168,785 173,784 175,782 183,782 186,784 190,783 193,784 200,781 205,782 204,780 194,778 167,777 166,776 146,774 134,769 124,769 119,765 116,765 113,763 108,763 107,761 102,760 101,757 98,757 94,753 94,749 89,747 81,739 77,738 70,732 67,732 66,730 64,730 60,726 57,726 56,724 Z M 995,703 1004,703 1005,705 1037,705 1038,703 1046,703 1047,705 1111,705 1115,699 1114,697 1053,697 1050,699 1023,699 1019,697 1017,699 1013,699 1010,697 1009,698 1003,697 1002,699 1000,699 998,702 Z M 139,698 144,705 146,706 148,705 151,706 182,706 183,705 186,706 257,706 259,705 260,702 257,697 256,699 243,699 242,697 205,697 204,699 200,699 199,697 172,697 171,699 152,699 151,697 144,697 143,699 Z M 909,689 909,692 911,693 911,707 909,708 909,718 916,718 917,719 917,714 916,713 916,707 917,706 941,706 943,708 943,720 950,720 948,719 948,717 950,716 950,688 949,689 943,689 942,687 942,699 940,702 928,702 927,700 918,700 916,698 916,689 914,687 911,687 Z M 828,691 827,693 827,714 830,714 833,720 864,720 864,716 839,716 834,711 834,695 836,693 846,693 848,691 862,692 864,691 864,687 833,687 831,688 830,691 Z M 750,687 751,697 750,698 750,707 748,708 748,718 781,718 780,716 759,716 758,714 756,714 755,713 755,707 756,706 780,706 780,700 759,701 755,699 755,694 756,693 781,693 782,689 780,687 Z M 667,687 665,692 666,693 680,693 681,694 681,718 683,720 689,720 689,694 690,693 704,693 705,692 705,687 Z M 177,466 174,464 158,464 156,461 149,459 139,462 113,462 112,460 104,460 99,462 84,462 83,464 76,464 75,466 71,466 69,469 65,470 64,472 58,472 58,474 54,478 49,480 49,482 45,486 44,490 57,484 60,481 61,478 70,473 72,473 73,471 78,472 79,471 94,470 103,467 111,467 112,466 117,467 121,465 134,465 135,464 150,465 152,467 167,466 170,468 Z M 1148,459 1148,460 1152,460 1155,462 1170,464 1174,467 1179,468 1183,467 1185,469 1196,470 1207,474 1213,478 1223,481 1221,478 1218,478 1217,476 1214,476 1212,474 1206,472 1203,469 1203,467 1198,464 1182,464 1181,462 1169,462 1168,460 1161,457 1155,459 Z M 640,375 642,377 644,377 647,380 647,382 655,390 657,390 662,395 662,398 671,407 673,407 675,409 675,412 686,423 689,423 700,435 715,435 716,437 764,437 765,436 784,437 785,435 798,437 886,377 883,375 870,375 869,374 868,375 853,375 852,374 851,375 847,374 828,374 827,375 822,374 802,374 801,375 793,375 792,374 784,374 783,375 779,374 647,374 643,376 Z M 953,336 957,344 957,347 960,351 960,355 964,360 966,366 966,357 964,356 964,349 962,348 962,345 960,343 960,341 955,339 954,336 Z M 361,298 358,298 355,296 354,301 350,304 349,306 349,316 350,318 351,315 355,313 355,311 359,306 Z M 731,201 726,201 725,199 724,200 717,199 716,197 704,198 703,199 697,199 694,197 693,198 685,197 680,200 674,207 666,209 661,216 649,221 645,226 634,229 627,236 620,239 618,242 612,246 610,246 609,248 602,253 599,253 592,260 584,263 572,271 571,276 567,280 567,283 565,285 564,292 557,303 546,330 542,337 536,354 534,356 534,359 530,366 529,370 531,373 610,373 613,368 616,367 615,364 621,352 624,351 623,348 634,327 634,324 636,322 643,307 645,305 647,305 648,303 647,299 650,292 654,287 660,273 662,271 664,271 663,268 665,265 667,265 666,262 668,259 675,253 682,251 706,251 707,250 712,250 713,248 716,247 736,246 731,241 729,236 732,234 740,234 744,231 744,226 738,226 737,225 738,221 736,221 733,218 732,212 734,207 732,206 Z M 728,213 732,214 732,216 730,218 726,217 726,215 Z M 904,189 903,191 881,190 880,193 865,193 860,196 855,197 863,197 865,199 864,211 866,212 869,211 872,207 876,206 887,199 890,200 903,191 Z M 864,208 867,207 868,210 865,211 Z M 958,165 957,169 959,171 959,173 957,174 959,178 958,181 959,183 959,199 957,200 958,204 957,205 956,218 954,226 952,229 948,248 945,254 946,255 950,255 951,247 956,245 956,238 957,237 956,236 956,225 960,224 964,221 965,217 964,216 964,208 966,207 967,204 967,191 966,190 965,177 Z M 895,135 910,138 913,140 919,140 921,142 929,142 933,146 944,149 945,152 947,151 945,148 941,145 937,144 934,140 931,139 925,134 916,135 915,133 907,133 901,135 Z M 611,63 579,81 576,84 572,85 571,88 565,89 565,91 559,95 553,96 552,99 546,100 543,104 539,104 530,109 529,112 523,113 520,115 519,118 514,120 509,124 506,135 502,142 501,150 491,175 491,178 488,183 485,198 481,205 469,238 467,240 466,248 464,250 463,254 461,255 458,263 454,268 454,277 452,280 452,283 450,285 450,287 448,288 447,293 445,294 445,296 443,298 438,313 435,314 432,319 432,326 426,332 426,334 424,336 422,344 419,348 417,359 414,361 408,378 405,382 404,390 402,392 402,395 397,401 392,416 386,426 386,429 382,440 380,441 376,457 381,459 391,459 392,461 483,461 484,459 507,459 508,461 528,461 529,460 536,461 537,459 544,459 545,461 560,461 561,460 564,461 642,461 643,460 663,461 609,408 483,408 482,407 476,407 474,403 474,400 486,373 491,358 495,351 497,342 502,334 506,321 512,309 513,303 515,300 515,296 520,288 521,282 525,276 529,266 531,257 534,254 534,251 536,249 538,241 545,228 545,225 551,213 552,208 555,203 555,200 561,188 562,182 566,175 579,142 582,141 581,137 583,131 585,128 587,128 586,127 587,122 590,121 602,88 609,73 612,64 Z M 492,60 488,60 485,56 483,57 479,67 470,76 466,76 463,78 463,80 459,84 459,88 455,89 451,93 450,97 451,102 449,103 448,107 455,100 455,98 463,91 467,83 470,80 472,80 472,78 476,74 477,71 480,70 482,67 Z M 44,627 44,637 46,645 50,651 69,670 80,678 108,706 115,720 124,730 126,730 139,737 153,738 154,739 191,739 192,738 205,738 206,739 207,738 212,738 213,739 252,739 253,738 258,738 259,739 269,739 281,744 283,747 286,748 292,753 305,757 585,757 600,753 609,748 620,745 644,745 661,754 665,754 670,756 682,756 683,757 684,756 688,757 716,757 717,758 720,757 889,757 890,756 893,757 894,756 923,756 924,757 926,756 935,756 936,757 941,757 942,756 962,755 968,753 972,750 974,750 985,741 991,739 999,739 1000,738 1008,738 1009,739 1012,738 1045,738 1046,739 1048,738 1109,738 1123,735 1131,730 1143,718 1143,716 1146,713 1147,709 1154,701 1156,696 1158,695 1171,679 1174,677 1182,666 1185,664 1193,654 1194,651 1209,630 1211,620 1213,616 1213,611 1207,589 1204,585 1201,577 1191,564 1191,559 1190,558 1190,552 1192,548 1192,545 1197,538 1201,527 1200,518 1195,509 1187,501 1179,498 1174,498 1168,496 1149,496 1148,495 1144,496 1129,496 1128,495 1126,496 1115,496 1114,495 1056,495 1055,496 1052,495 1051,496 1045,496 1044,495 1038,495 1030,497 976,496 966,498 957,498 953,500 950,500 935,511 932,515 925,516 905,502 887,496 886,497 876,497 871,495 861,496 860,495 847,496 843,495 840,496 839,495 827,495 826,494 824,495 821,494 819,495 811,495 810,494 733,494 732,495 728,494 724,495 723,494 697,494 696,493 687,493 685,491 683,491 682,487 699,469 706,466 772,466 773,465 786,465 787,466 796,465 801,466 809,464 811,462 816,462 823,457 826,453 834,450 844,441 864,429 879,415 885,412 890,407 896,404 898,401 905,397 918,383 919,378 921,375 921,365 918,359 914,354 902,350 879,349 878,348 810,348 809,349 802,349 801,348 794,348 793,349 785,349 784,348 763,348 762,349 759,348 683,348 667,345 665,343 666,332 671,323 673,322 674,316 679,309 681,302 689,291 699,284 707,282 814,281 831,276 840,271 850,263 854,262 857,258 869,248 874,246 875,244 886,238 893,231 896,230 909,220 914,214 924,206 930,198 930,196 932,194 933,185 931,182 930,177 922,171 910,170 909,169 854,169 853,170 845,170 844,169 843,170 827,170 826,169 825,170 822,169 812,170 811,169 810,170 746,170 745,171 742,170 723,171 722,170 721,171 707,171 706,172 688,172 674,175 671,178 669,178 667,180 655,185 631,203 621,207 616,212 603,218 597,223 588,224 586,221 587,213 593,198 593,194 597,184 599,173 601,170 602,165 608,155 609,147 611,145 618,121 621,116 626,99 629,94 632,77 636,67 636,62 637,61 636,52 632,45 627,42 617,40 616,41 606,42 599,47 597,47 594,50 578,58 576,58 566,64 564,64 563,66 561,66 559,68 537,78 529,84 527,84 525,86 509,93 506,96 497,101 489,110 488,114 485,117 480,130 477,134 471,151 465,161 460,176 453,188 451,196 447,201 445,210 441,217 441,220 437,227 437,230 427,250 427,254 425,256 420,270 413,282 412,290 408,296 402,311 400,313 400,317 397,323 395,332 393,334 392,339 384,353 384,356 381,360 379,367 377,369 375,378 367,393 367,396 365,398 363,405 359,411 359,414 348,438 348,441 345,447 343,455 343,465 350,480 357,486 357,489 355,491 341,492 340,493 285,493 284,494 276,493 262,497 250,506 244,514 242,520 240,521 240,525 236,538 236,545 232,554 231,562 224,568 215,572 199,572 198,571 180,570 175,565 172,553 172,525 171,521 165,509 155,500 147,496 137,494 127,494 126,493 115,493 114,494 111,493 110,494 101,494 97,496 94,496 82,505 79,506 71,518 71,522 67,534 67,539 63,547 62,558 60,562 54,590 51,597 51,602 46,614 46,621 Z M 45,635 46,627 54,600 56,588 58,584 58,580 72,528 73,520 76,517 78,511 88,501 97,497 102,497 103,496 130,496 131,497 138,496 151,500 160,508 160,510 166,518 167,523 169,524 169,556 168,557 168,569 166,571 170,574 175,574 176,573 185,573 186,574 218,574 219,573 224,573 226,574 231,571 233,568 237,546 239,542 240,533 245,516 252,506 258,501 264,498 273,496 276,497 371,497 372,496 377,496 378,497 402,497 403,496 422,496 423,497 710,497 711,498 717,497 718,498 747,498 748,499 892,500 904,505 917,517 929,525 932,525 934,523 935,516 949,504 960,500 1003,500 1004,501 1028,501 1029,500 1175,500 1185,504 1189,508 1192,508 1198,517 1199,528 1193,540 1187,547 1187,549 1183,555 1183,558 1189,564 1192,570 1200,578 1203,584 1203,588 1207,595 1207,598 1209,600 1212,611 1212,617 1210,623 1207,626 1201,638 1186,658 1176,668 1174,672 1166,679 1150,697 1146,706 1135,723 1126,731 1114,735 988,735 985,736 969,750 958,754 674,755 662,752 653,746 646,743 611,743 606,745 596,752 586,755 302,755 291,750 276,737 271,735 141,735 129,731 120,723 109,705 106,698 55,653 54,650 48,643 Z M 931,183 932,187 927,195 903,218 833,269 820,276 815,276 814,277 700,277 699,278 693,277 690,278 684,286 673,309 653,345 653,347 655,349 654,352 656,350 705,350 706,351 767,351 768,352 801,351 802,352 829,352 830,353 903,353 909,355 915,360 920,369 918,376 915,379 915,382 910,387 899,393 896,397 894,397 893,400 890,400 871,417 816,457 810,460 803,462 700,462 695,464 693,466 691,472 679,483 670,485 485,485 484,484 422,485 421,484 363,484 353,479 346,471 344,460 355,432 357,430 359,423 362,419 367,404 371,398 372,393 376,386 383,366 386,362 391,348 396,339 403,320 406,315 413,295 417,288 439,234 455,199 459,187 481,139 482,130 493,108 501,101 515,95 517,93 546,79 565,68 569,67 583,59 585,59 596,52 603,50 612,44 618,42 623,42 624,44 628,45 634,52 635,58 608,140 606,143 603,154 586,198 586,201 581,212 580,218 577,223 570,242 574,245 596,230 598,230 604,226 605,224 607,224 608,222 610,222 664,186 674,180 682,177 737,177 738,175 741,176 746,175 795,176 796,174 811,174 812,175 920,174 924,176 Z M 560,20 560,22 562,22 566,19 569,19 576,16 589,15 594,13 608,12 609,11 626,11 628,13 634,13 637,14 640,17 642,17 643,19 646,19 650,21 652,24 657,25 658,27 662,29 665,39 667,40 676,52 676,47 674,45 674,38 671,36 671,33 668,29 661,25 656,20 649,18 648,16 639,10 627,7 625,5 619,5 618,4 617,6 613,6 610,4 602,4 601,6 598,6 594,9 586,10 585,12 566,12 562,16 562,19 Z" fill="url(#lime)"/>
 <path d="M 547,689 547,722 549,721 573,722 574,721 580,721 584,718 585,710 582,706 582,704 584,702 584,694 581,690 578,689 Z M 554,709 556,707 575,707 578,710 578,714 576,716 555,716 554,715 Z M 554,695 555,694 575,694 578,697 578,699 575,703 555,703 554,702 Z M 464,690 464,716 468,721 471,722 496,722 499,721 503,716 503,689 497,689 496,690 497,691 496,695 496,714 494,716 473,716 471,714 471,689 465,689 Z M 392,689 391,690 391,722 422,722 422,716 408,716 406,717 398,715 398,689 Z M 313,692 311,696 311,717 313,720 317,722 346,722 347,721 346,716 321,717 318,715 318,697 321,694 346,694 347,695 348,694 347,689 318,689 Z M 260,636 376,636 400,609 379,609 378,608 373,608 372,609 338,609 337,608 330,608 329,609 325,608 273,608 272,609 263,609 Z M 265,592 375,592 376,593 385,584 398,568 269,568 268,569 Z M 1023,548 1025,574 1047,593 1143,593 1145,595 1146,605 1147,606 1146,610 1050,610 1030,636 1166,636 1182,616 1179,608 1175,589 1152,570 1058,570 1056,568 1056,557 1055,556 1056,552 1148,552 1168,527 1044,527 Z M 847,527 861,540 862,593 863,594 863,635 864,636 896,636 895,598 894,597 894,572 895,571 898,572 967,636 1002,636 999,565 998,564 998,547 997,546 997,528 996,527 965,527 964,528 965,529 965,555 966,556 966,574 967,575 967,593 966,594 890,527 Z M 676,548 676,615 698,635 814,635 834,616 832,548 810,527 698,527 Z M 708,553 709,552 799,552 801,554 801,607 800,608 709,608 708,607 Z M 614,527 613,528 614,530 613,531 612,636 643,636 644,637 645,527 Z M 428,549 423,618 439,636 560,636 581,616 582,570 508,570 488,592 549,593 550,594 550,607 548,609 457,609 456,608 459,554 461,552 547,552 569,527 452,527 Z M 270,551 271,552 386,552 408,527 273,527 272,542 Z M 75,636 81,636 82,635 98,635 99,636 113,636 114,635 128,635 129,636 136,636 137,635 145,635 146,636 154,636 155,635 208,636 209,635 214,635 241,608 119,608 118,605 125,576 134,527 101,527 Z" fill="url(#silver)"/>
</svg>
